<?xml version="1.0" standalone="no"?><svg xmlns="http://www.w3.org/2000/svg" viewBox="0 0 1440 320"><path fill="#f77f00" fill-opacity="1" d="M0,288L0,96L84.7,96L84.7,96L169.4,96L169.4,192L254.1,192L254.1,32L338.8,32L338.8,160L423.5,160L423.5,192L508.2,192L508.2,256L592.9,256L592.9,64L677.6,64L677.6,256L762.4,256L762.4,128L847.1,128L847.1,64L931.8,64L931.8,320L1016.5,320L1016.5,224L1101.2,224L1101.2,160L1185.9,160L1185.9,320L1270.6,320L1270.6,32L1355.3,32L1355.3,192L1440,192L1440,0L1355.3,0L1355.3,0L1270.6,0L1270.6,0L1185.9,0L1185.9,0L1101.2,0L1101.2,0L1016.5,0L1016.5,0L931.8,0L931.8,0L847.1,0L847.1,0L762.4,0L762.4,0L677.6,0L677.6,0L592.9,0L592.9,0L508.2,0L508.2,0L423.5,0L423.5,0L338.8,0L338.8,0L254.1,0L254.1,0L169.4,0L169.4,0L84.7,0L84.7,0L0,0L0,0Z"></path></svg>